<?xml version="1.0" encoding="UTF-8" standalone="no"?>
<!DOCTYPE svg PUBLIC "-//W3C//DTD SVG 1.1//EN" "http://www.w3.org/Graphics/SVG/1.1/DTD/svg11.dtd">
<svg width="100%" height="100%" viewBox="0 0 500 500" version="1.1" xmlns="http://www.w3.org/2000/svg" xmlns:xlink="http://www.w3.org/1999/xlink" xml:space="preserve" xmlns:serif="http://www.serif.com/" style="fill-rule:evenodd;clip-rule:evenodd;stroke-linejoin:round;stroke-miterlimit:2;">
    <g transform="matrix(2.77778,0,0,2.77967,100.096,305.485)">
        <path d="M0,-7.72C-1.216,-7.147 -2.02,-6.522 -2.412,-5.843C-2.806,-5.163 -3.002,-4.216 -3.002,-3.002C-3.002,-1.645 -2.396,-0.376 -1.179,0.803C0.035,1.982 2.214,2.572 5.36,2.572C9.005,2.572 12.095,1.607 14.633,-0.323C17.168,-2.252 18.438,-4.967 18.438,-8.47L18.438,-10.292C14.364,-10.005 10.613,-9.684 7.182,-9.327C3.752,-8.968 1.356,-8.433 0,-7.72" style="fill:rgb(178,0,106);fill-rule:nonzero;"/>
    </g>
    <g transform="matrix(2.77778,0,0,2.77967,277.441,301.612)">
        <path d="M0,-25.086C-0.965,-25.943 -2.073,-26.586 -3.322,-27.015C-4.574,-27.444 -5.879,-27.658 -7.235,-27.658C-8.594,-27.658 -9.899,-27.444 -11.149,-27.015C-12.4,-26.586 -13.507,-25.943 -14.472,-25.086C-15.437,-24.228 -16.224,-23.119 -16.83,-21.763C-17.438,-20.404 -17.741,-18.796 -17.741,-16.939L-17.741,-8.148C-17.741,-6.29 -17.438,-4.681 -16.83,-3.324C-16.224,-1.966 -15.437,-0.859 -14.472,-0.002C-13.507,0.857 -12.4,1.499 -11.149,1.928C-9.899,2.358 -8.594,2.572 -7.235,2.572C-5.879,2.572 -4.574,2.358 -3.322,1.928C-2.073,1.499 -0.965,0.857 0,-0.002C0.965,-0.859 1.751,-1.966 2.358,-3.324C2.965,-4.681 3.27,-6.29 3.27,-8.148L3.27,-16.939C3.27,-18.796 2.965,-20.404 2.358,-21.763C1.751,-23.119 0.965,-24.228 0,-25.086" style="fill:rgb(178,0,106);fill-rule:nonzero;"/>
    </g>
    <g transform="matrix(2.77778,0,0,2.77967,442.783,178.278)">
        <path d="M0,51.605C-1.144,53.786 -2.717,55.554 -4.717,56.912C-6.719,58.27 -9.023,59.252 -11.631,59.86C-14.241,60.465 -16.975,60.771 -19.832,60.771C-22.691,60.771 -25.532,60.395 -28.354,59.644C-31.178,58.895 -33.715,57.752 -35.966,56.214C-38.217,54.678 -40.058,52.714 -41.486,50.319C-41.71,49.945 -41.911,49.557 -42.104,49.162L-42.104,59.699L-56.254,59.699L-56.254,54.446C-56.896,55.375 -57.701,56.233 -58.666,57.018C-59.631,57.806 -60.686,58.466 -61.828,59.001C-62.973,59.538 -64.187,59.967 -65.473,60.289C-66.759,60.61 -68.01,60.771 -69.225,60.771C-72.012,60.771 -74.745,60.289 -77.425,59.323C-80.105,58.359 -82.482,56.876 -84.554,54.876C-86.628,52.875 -88.29,50.372 -89.539,47.371C-90.066,46.107 -90.475,44.743 -90.779,43.29L-90.779,59.699L-104.93,59.699L-104.93,53.374C-106.216,55.448 -108.038,57.198 -110.397,58.626C-112.755,60.055 -116.078,60.771 -120.366,60.771C-126.728,60.771 -131.676,59.323 -135.213,56.429C-138.751,53.535 -140.52,49.515 -140.52,44.369C-140.52,40.295 -139.734,36.991 -138.161,34.454C-136.59,31.918 -133.873,29.719 -130.014,27.861C-128.657,27.217 -126.996,26.681 -125.029,26.252C-123.064,25.824 -120.956,25.448 -118.705,25.127C-116.453,24.805 -114.148,24.537 -111.791,24.323C-109.432,24.108 -107.217,23.931 -105.144,23.787L-105.144,23.68C-105.645,21.179 -106.752,19.214 -108.467,17.784C-110.182,16.355 -112.505,15.64 -115.435,15.64C-117.938,15.64 -120.01,16.194 -121.653,17.301C-123.297,18.41 -124.477,19.893 -125.19,21.75L-139.448,21.75C-138.305,15.961 -135.714,11.37 -131.676,7.975C-127.639,4.582 -122.226,2.883 -115.435,2.883C-111.506,2.883 -108.003,3.491 -104.93,4.706C-101.858,5.921 -99.267,7.637 -97.158,9.851C-95.05,12.067 -93.459,14.729 -92.387,17.837C-91.849,19.398 -91.447,21.054 -91.179,22.804C-90.894,20.406 -90.351,18.23 -89.539,16.283C-88.29,13.281 -86.628,10.78 -84.554,8.779C-82.482,6.779 -80.105,5.295 -77.425,4.33C-74.745,3.366 -72.012,2.883 -69.225,2.883C-68.01,2.883 -66.759,3.044 -65.473,3.366C-64.187,3.687 -62.973,4.116 -61.828,4.651C-60.686,5.188 -59.631,5.849 -58.666,6.635C-57.701,7.422 -56.896,8.28 -56.254,9.208L-56.254,-9.166L-42.104,-9.166L-42.104,15.997C-41.818,14.824 -41.401,13.72 -40.843,12.692C-39.701,10.584 -38.163,8.797 -36.233,7.332C-34.304,5.868 -32.071,4.759 -29.533,4.009C-26.997,3.258 -24.3,2.883 -21.439,2.883C-18.652,2.883 -16.01,3.223 -13.507,3.901C-11.007,4.582 -8.79,5.653 -6.861,7.117C-4.932,8.583 -3.36,10.441 -2.145,12.692C-0.93,14.943 -0.215,17.641 0,20.785L-14.472,20.785C-14.83,19 -15.705,17.695 -17.099,16.873C-18.492,16.052 -20.083,15.64 -21.869,15.64C-23.942,15.64 -25.532,16.015 -26.64,16.766C-27.748,17.516 -28.338,18.534 -28.408,19.82C-28.408,21.037 -27.998,21.948 -27.176,22.554C-26.354,23.162 -25.336,23.609 -24.12,23.894L-11.685,26.681C-10.184,27.04 -8.648,27.592 -7.075,28.342C-5.504,29.093 -4.058,30.13 -2.734,31.452C-1.412,32.775 -0.34,34.436 0.482,36.436C1.303,38.438 1.715,40.869 1.715,43.726C1.715,46.799 1.143,49.426 0,51.605M18.692,-29.24L-157.498,-29.24C-158.549,-29.24 -159.402,-28.387 -159.402,-27.335L-159.402,78.94C-159.402,79.993 -158.549,80.845 -157.498,80.845L18.692,80.845C19.745,80.845 20.598,79.993 20.598,78.94L20.598,-27.335C20.598,-28.387 19.745,-29.24 18.692,-29.24" style="fill:rgb(178,0,106);fill-rule:nonzero;"/>
    </g>
    <rect x="0" y="0" width="500" height="108" style="fill:rgb(178,0,106);"/>
    <g transform="matrix(2.77778,0,0,2.77967,394.544,269.604)">
        <path d="M0,6.583L-11.578,4.01C-13.078,3.653 -14.633,3.082 -16.241,2.295C-17.849,1.51 -19.314,0.437 -20.636,-0.921C-21.959,-2.277 -23.048,-3.939 -23.906,-5.906C-24.264,-6.725 -24.528,-7.626 -24.737,-8.576L-24.737,8.941L-12.328,8.941C-12.186,10.014 -11.775,10.942 -11.095,11.729C-10.417,12.516 -9.595,13.158 -8.63,13.658C-7.665,14.158 -6.611,14.534 -5.467,14.784C-4.325,15.035 -3.181,15.159 -2.037,15.159C-1.323,15.159 -0.573,15.105 0.214,14.998C1,14.891 1.75,14.677 2.466,14.355C3.179,14.033 3.769,13.604 4.234,13.068C4.698,12.532 4.931,11.801 4.931,10.871C4.931,8.727 3.286,7.299 0,6.583" style="fill:rgb(178,0,106);fill-rule:nonzero;"/>
    </g>
    <rect x="0" y="388" width="500" height="112" style="fill:rgb(178,0,106);"/>
</svg>
